<?xml version="1.0" standalone="no"?>
<!DOCTYPE svg PUBLIC "-//W3C//DTD SVG 20010904//EN"
 "http://www.w3.org/TR/2001/REC-SVG-20010904/DTD/svg10.dtd">
<svg version="1.0" xmlns="http://www.w3.org/2000/svg"
 width="260.000000pt" height="260.000000pt" viewBox="0 0 260.000000 260.000000"
 preserveAspectRatio="xMidYMid meet">
<metadata>
Created by potrace 1.11, written by Peter Selinger 2001-2013
</metadata>
<g transform="translate(0.000000,260.000000) scale(0.100000,-0.100000)"
fill="#000000" stroke="none">
<path d="M471 2263 c-65 -22 -112 -69 -134 -134 -9 -27 -12 -236 -12 -840 1
-757 2 -806 19 -839 26 -49 55 -79 101 -103 40 -21 46 -21 855 -21 809 0 815
0 855 21 46 24 75 54 101 103 17 33 18 81 18 850 0 769 -1 817 -18 850 -26 49
-55 79 -101 103 -40 21 -47 21 -844 22 -604 0 -813 -3 -840 -12z m1463 -215
c51 -13 101 -63 114 -114 16 -63 12 -1233 -4 -1281 -16 -46 -61 -88 -106 -101
-18 -5 -311 -8 -653 -8 -698 1 -659 -3 -713 78 l-27 42 -1 620 c-1 341 2 634
7 651 13 45 59 94 102 109 49 17 1219 21 1281 4z"/>
<path d="M1024 1835 c-8 -5 -16 -28 -19 -50 -4 -22 -10 -56 -15 -75 -8 -30
-94 -424 -106 -485 -2 -11 -6 -31 -9 -45 -3 -14 -7 -34 -9 -45 -2 -11 -11 -50
-20 -86 -15 -67 -21 -94 -31 -146 -3 -16 -8 -35 -10 -43 -2 -8 -7 -30 -10 -49
-3 -19 -8 -38 -11 -43 -6 -9 -10 -9 135 -11 64 -1 119 2 126 8 6 6 19 46 29
90 9 44 19 89 21 100 3 11 19 89 37 172 18 84 35 147 39 140 4 -6 37 -122 74
-257 37 -135 69 -247 71 -249 3 -3 188 -5 250 -2 18 1 23 11 32 64 6 34 25
125 42 202 16 77 32 149 34 160 21 104 128 597 135 623 8 27 6 32 -7 33 -84 5
-245 0 -251 -7 -5 -5 -32 -122 -62 -261 -30 -139 -56 -249 -60 -245 -3 4 -36
121 -74 260 -38 138 -73 252 -79 253 -72 6 -242 2 -252 -6z"/>
</g>
</svg>
